<svg  viewBox="0 0 40 40"  class="hidden">
  <defs>
          <style><![CDATA[
            .sprite { display: none; }
            .sprite:target {  display: inline;   }
          ]]></style>
        </defs>
  <g class="sprite" fill="none" xmlns="http://www.w3.org/2000/svg" id="facebook">
    <path d="M34.3759 4.375H5.62585C4.93444 4.375 4.37585 4.93359 4.37585 5.625V34.375C4.37585 35.0664 4.93444 35.625 5.62585 35.625H34.3759C35.0673 35.625 35.6259 35.0664 35.6259 34.375V5.625C35.6259 4.93359 35.0673 4.375 34.3759 4.375ZM30.7665 13.4961H28.2704C26.3133 13.4961 25.9344 14.4258 25.9344 15.793V18.8047H30.6063L29.9969 23.5195H25.9344V35.625H21.0633V23.5234H16.9891V18.8047H21.0633V15.3281C21.0633 11.293 23.5282 9.09375 27.1298 9.09375C28.8563 9.09375 30.3368 9.22266 30.7704 9.28125V13.4961H30.7665Z" fill="white"></path>
  </g>
  <g class="sprite" fill="none" xmlns="http://www.w3.org/2000/svg" id="linkedin">
    <path d="M34.377 4.375H5.627C4.93559 4.375 4.377 4.93359 4.377 5.625V34.375C4.377 35.0664 4.93559 35.625 5.627 35.625H34.377C35.0684 35.625 35.627 35.0664 35.627 34.375V5.625C35.627 4.93359 35.0684 4.375 34.377 4.375ZM13.6465 31.0039H9.00981V16.0898H13.6465V31.0039ZM11.3301 14.0508C10.7986 14.0508 10.279 13.8932 9.83703 13.5979C9.39507 13.3025 9.05061 12.8828 8.8472 12.3917C8.64379 11.9007 8.59057 11.3603 8.69426 10.839C8.79796 10.3177 9.05392 9.83879 9.42977 9.46293C9.80563 9.08708 10.2845 8.83112 10.8058 8.72742C11.3271 8.62372 11.8675 8.67694 12.3586 8.88035C12.8497 9.08377 13.2694 9.42823 13.5647 9.87019C13.86 10.3121 14.0176 10.8317 14.0176 11.3633C14.0137 12.8477 12.8106 14.0508 11.3301 14.0508ZM31.0059 31.0039H26.3731V23.75C26.3731 22.0195 26.3418 19.7969 23.9629 19.7969C21.5528 19.7969 21.1817 21.6797 21.1817 23.625V31.0039H16.5528V16.0898H20.9981V18.1289H21.0606C21.6778 16.957 23.1895 15.7188 25.4473 15.7188C30.1426 15.7188 31.0059 18.8086 31.0059 22.8242V31.0039Z" fill="white"></path>
  </g>
  <g class="sprite" fill="none" xmlns="http://www.w3.org/2000/svg" id="location">
    <path d="M34.3666 14.0832C32.6166 6.38317 25.9 2.9165 20 2.9165C20 2.9165 20 2.9165 19.9833 2.9165C14.1 2.9165 7.36664 6.3665 5.61664 14.0665C3.66664 22.6665 8.93331 29.9498 13.7 34.5332C15.4666 36.2332 17.7333 37.0832 20 37.0832C22.2666 37.0832 24.5333 36.2332 26.2833 34.5332C31.05 29.9498 36.3166 22.6832 34.3666 14.0832ZM20 22.4332C17.1 22.4332 14.75 20.0832 14.75 17.1832C14.75 14.2832 17.1 11.9332 20 11.9332C22.9 11.9332 25.25 14.2832 25.25 17.1832C25.25 20.0832 22.9 22.4332 20 22.4332Z" fill="white"></path>
  </g>
  <g class="sprite" fill="none" xmlns="http://www.w3.org/2000/svg" id="mobile">
    <path d="M27.0667 3.3335H12.9334C8.33335 3.3335 6.66669 5.00016 6.66669 9.6835V30.3168C6.66669 35.0002 8.33335 36.6668 12.9334 36.6668H27.05C31.6667 36.6668 33.3334 35.0002 33.3334 30.3168V9.6835C33.3334 5.00016 31.6667 3.3335 27.0667 3.3335ZM20 32.1668C18.4 32.1668 17.0834 30.8502 17.0834 29.2502C17.0834 27.6502 18.4 26.3335 20 26.3335C21.6 26.3335 22.9167 27.6502 22.9167 29.2502C22.9167 30.8502 21.6 32.1668 20 32.1668ZM23.3334 10.4168H16.6667C15.9834 10.4168 15.4167 9.85016 15.4167 9.16683C15.4167 8.4835 15.9834 7.91683 16.6667 7.91683H23.3334C24.0167 7.91683 24.5834 8.4835 24.5834 9.16683C24.5834 9.85016 24.0167 10.4168 23.3334 10.4168Z" fill="white"></path>
  </g>
  <g class="sprite" fill="none" xmlns="http://www.w3.org/2000/svg" id="twitter">
    <path d="M36.2508 9.93361C35.0555 10.4492 33.7547 10.8203 32.4149 10.9649C33.8059 10.1384 34.8477 8.83283 35.3446 7.29298C34.0392 8.0695 32.6092 8.61401 31.118 8.90236C30.4947 8.23606 29.7409 7.70525 28.9036 7.34301C28.0662 6.98078 27.1632 6.79488 26.2508 6.79689C22.5594 6.79689 19.5907 9.78908 19.5907 13.461C19.5907 13.9766 19.6532 14.4922 19.7547 14.9883C14.2274 14.6992 9.29769 12.0586 6.02035 8.01564C5.42318 9.03562 5.11025 10.197 5.1141 11.3789C5.1141 13.6914 6.28988 15.7305 8.08285 16.9297C7.02623 16.8881 5.99435 16.5977 5.07113 16.082V16.1641C5.07113 19.4024 7.3602 22.086 10.411 22.7031C9.83816 22.8519 9.24889 22.928 8.65707 22.9297C8.22348 22.9297 7.81332 22.8867 7.39926 22.8281C8.24301 25.4688 10.7 27.3867 13.6258 27.4492C11.3368 29.2422 8.46957 30.2969 5.35629 30.2969C4.7977 30.2969 4.28207 30.2774 3.74691 30.2149C6.70004 32.1094 10.2039 33.2031 13.9774 33.2031C26.2274 33.2031 32.9305 23.0547 32.9305 14.2461C32.9305 13.957 32.9305 13.668 32.911 13.3789C34.2078 12.4297 35.3446 11.2539 36.2508 9.93361Z" fill="white"></path>
  </g>
</svg>
